# xmcd CD database file
#
# Track frame offsets:
#	150
#	22087
#	46262
#	68162
#	88787
#	109475
#	129287
#	151637
#	171125
#	193187
#	214175
#	231050
#	252500
#	276200
#
# Disc length: 3993 seconds
#
# Revision: 0
# Processed by: cddbd v1.5.1PL0 Copyright (c) Steve Scherf et al.
# Submitted via: freeDB plugin v1.0
#
DISCID=c50f970e
DTITLE=チェウニ - ベストヒット・シングルズ
DYEAR=1900
DGENRE=Misc
TTITLE0=トーキョー・トワイライト
TTITLE1=Ｔｏｋｙｏに雪が降る（シングル・ヴァージョン）
TTITLE2=星空のトーキョー
TTITLE3=東京の枯葉
TTITLE4=トーキョー・ムーンライトセレナーデ
TTITLE5=時代遅れの女になりたい（シングル・ヴァージョン）
TTITLE6=トーキョー・マイラブ
TTITLE7=冬のひまわり
TTITLE8=最愛のひと（シングル・ヴァージョン）
TTITLE9=セピア色の雨（シングル・ヴァージョン）
TTITLE10=真冬のイルミネーション
TTITLE11=やさしくさよなら
TTITLE12=ラブストーリーをもう一度
TTITLE13=青空〜幸せの隣りへ〜
EXTD=
EXTT0=
EXTT1=
EXTT2=
EXTT3=
EXTT4=
EXTT5=
EXTT6=
EXTT7=
EXTT8=
EXTT9=
EXTT10=
EXTT11=
EXTT12=
EXTT13=
PLAYORDER=
